<svg width="250" height="120" viewBox="0 0 335 172" fill="none" xmlns="http://www.w3.org/2000/svg">
<path d="M166.868 60.4C158.358 58.5344 140 60.8043 140 80.9536V119.2H152.325V106.14H187.54V119.2H199.865V95.8793C201.332 94.6355 203.856 104.549 208.669 107.073C211.509 108.563 213.951 109.533 216.592 108.939C222.309 107.652 225.044 103.902 223.635 94.9465C220.994 98.0558 213.071 101.44 212.19 94.9465C212.19 87.4476 212.19 67.8943 212.19 67.8943C211.31 62.2974 206.204 51.2898 192.822 52.0361H178.397C172.234 52 163.079 60.4311 165.191 71.6249C165.847 75.1 168.35 82.0395 177.177 82.819C180.699 83.13 186.522 81.6997 190.043 73.4906" stroke="#588157" stroke-width="4" stroke-linecap="round" stroke-linejoin="round"/>
<path d="M204.6 75.1C204.6 77.1435 202.944 78.8 200.9 78.8C198.857 78.8 197.2 77.1435 197.2 75.1C197.2 73.0566 198.857 71.4 200.9 71.4C202.944 71.4 204.6 73.0566 204.6 75.1Z" fill="#588157" stroke="#588157"/>
<path d="M76.5469 153H73.0898L64.6992 139.324H64.5938C64.625 139.785 64.6523 140.273 64.6758 140.789C64.707 141.305 64.7305 141.836 64.7461 142.383C64.7695 142.93 64.7891 143.484 64.8047 144.047V153H62.25V135.867H65.6836L74.0625 149.449H74.1445C74.1289 149.051 74.1094 148.594 74.0859 148.078C74.0625 147.562 74.0391 147.031 74.0156 146.484C74 145.93 73.9883 145.395 73.9805 144.879V135.867H76.5469V153ZM84.6469 153V135.867H87.4594V153H84.6469ZM102.884 138.012C102.063 138.012 101.329 138.16 100.68 138.457C100.04 138.754 99.4969 139.184 99.0516 139.746C98.6063 140.301 98.2664 140.977 98.032 141.773C97.7977 142.562 97.6805 143.453 97.6805 144.445C97.6805 145.773 97.868 146.918 98.243 147.879C98.618 148.832 99.1883 149.566 99.9539 150.082C100.72 150.59 101.688 150.844 102.86 150.844C103.587 150.844 104.294 150.773 104.981 150.633C105.669 150.492 106.38 150.301 107.114 150.059V152.449C106.419 152.723 105.716 152.922 105.005 153.047C104.294 153.172 103.473 153.234 102.544 153.234C100.794 153.234 99.3406 152.871 98.1844 152.145C97.0359 151.418 96.1766 150.395 95.6063 149.074C95.0438 147.754 94.7625 146.207 94.7625 144.434C94.7625 143.137 94.9422 141.949 95.3016 140.871C95.6609 139.793 96.1844 138.863 96.8719 138.082C97.5594 137.293 98.407 136.688 99.4148 136.266C100.43 135.836 101.591 135.621 102.895 135.621C103.755 135.621 104.598 135.719 105.427 135.914C106.263 136.102 107.036 136.371 107.747 136.723L106.763 139.043C106.169 138.762 105.548 138.52 104.899 138.316C104.251 138.113 103.579 138.012 102.884 138.012ZM124.097 153H114.394V135.867H124.097V138.234H117.206V142.887H123.663V145.242H117.206V150.621H124.097V153ZM150.938 153H141.234V135.867H150.938V138.234H144.047V142.887H150.504V145.242H144.047V150.621H150.938V153ZM158.241 153V135.867H161.053V150.609H168.33V153H158.241ZM184.598 153H174.895V135.867H184.598V138.234H177.708V142.887H184.165V145.242H177.708V150.621H184.598V153ZM196.882 135.867C199.093 135.867 200.706 136.32 201.722 137.227C202.738 138.133 203.245 139.402 203.245 141.035C203.245 141.777 203.128 142.484 202.894 143.156C202.667 143.82 202.292 144.41 201.769 144.926C201.245 145.434 200.554 145.836 199.695 146.133C198.843 146.43 197.792 146.578 196.542 146.578H194.714V153H191.902V135.867H196.882ZM196.695 138.199H194.714V144.234H196.249C197.132 144.234 197.882 144.133 198.499 143.93C199.116 143.719 199.585 143.387 199.905 142.934C200.226 142.48 200.386 141.883 200.386 141.141C200.386 140.148 200.085 139.41 199.484 138.926C198.89 138.441 197.96 138.199 196.695 138.199ZM223.779 153H220.978V145.266H213.08V153H210.267V135.867H213.08V142.875H220.978V135.867H223.779V153ZM242.531 153L240.855 148.242H234.305L232.629 153H229.664L236.039 135.797H239.156L245.52 153H242.531ZM240.129 145.828L238.5 141.141C238.438 140.938 238.348 140.652 238.23 140.285C238.113 139.91 237.996 139.531 237.879 139.148C237.762 138.758 237.664 138.43 237.586 138.164C237.508 138.484 237.41 138.844 237.293 139.242C237.184 139.633 237.074 140 236.965 140.344C236.863 140.688 236.785 140.953 236.73 141.141L235.09 145.828H240.129ZM265.678 153H262.221L253.83 139.324H253.725C253.756 139.785 253.784 140.273 253.807 140.789C253.838 141.305 253.862 141.836 253.877 142.383C253.901 142.93 253.92 143.484 253.936 144.047V153H251.381V135.867H254.815L263.194 149.449H263.276C263.26 149.051 263.241 148.594 263.217 148.078C263.194 147.562 263.17 147.031 263.147 146.484C263.131 145.93 263.12 145.395 263.112 144.879V135.867H265.678V153ZM279.72 153H276.895V138.258H271.88V135.867H284.723V138.258H279.72V153Z" fill="#588157"/>
</svg>
